<svg width="99" height="99" viewBox="0 0 99 99" fill="none" xmlns="http://www.w3.org/2000/svg">
<g clip-path="url(#clip0_2_3)">
<path d="M70.125 8.25C73.4071 8.25 76.5547 9.55379 78.8754 11.8746C81.1962 14.1953 82.5 17.3429 82.5 20.625V86.625C82.5001 87.3718 82.2975 88.1046 81.9137 88.7453C81.53 89.386 80.9795 89.9104 80.321 90.2627C79.6626 90.615 78.9208 90.782 78.1749 90.7458C77.4289 90.7095 76.7069 90.4715 76.0856 90.057L66.5239 83.6839L60.6664 89.5414C59.9561 90.2516 59.011 90.6783 58.0086 90.7413C57.0061 90.8043 56.015 90.4994 55.2214 89.8838L54.8336 89.5414L49.5 84.2119L44.1664 89.5414C43.4561 90.2516 42.511 90.6783 41.5086 90.7413C40.5061 90.8043 39.515 90.4994 38.7214 89.8838L38.3336 89.5414L32.472 83.6839L22.9144 90.057L22.836 90.1065L22.6132 90.2303L22.4977 90.3004L22.275 90.3952L22.0687 90.4901L21.8666 90.552L21.6191 90.6304L21.4046 90.6675L21.1695 90.7129L20.823 90.7376L20.7157 90.75H20.625L20.4229 90.7376H20.262L20.2084 90.7252H20.1424L19.9733 90.6923L19.8165 90.6716L19.7546 90.651L19.6804 90.6428L19.5401 90.5974L19.3751 90.5561L19.2967 90.5272L19.2349 90.5107L19.1152 90.4571L18.9502 90.3952L18.8636 90.3499L18.81 90.3293L18.6945 90.2632L18.546 90.189L18.4882 90.1478L18.414 90.1065L18.2573 89.9951L18.1665 89.9374L18.1253 89.9003L18.0428 89.8425L17.8571 89.6734L17.8076 89.6404L17.7086 89.5414L17.5642 89.3805L17.4817 89.298L17.4529 89.2526L17.4075 89.2031L17.2755 89.0175L17.193 88.9144L17.1435 88.836L17.0197 88.6133L16.9496 88.4978L16.8547 88.275L16.7599 88.0688C16.7047 87.923 16.6579 87.7743 16.6196 87.6233L16.5784 87.3881L16.5371 87.1695L16.5 86.625V20.625C16.5 17.3429 17.8038 14.1953 20.1246 11.8746C22.4453 9.55379 25.5929 8.25 28.875 8.25H70.125ZM61.875 57.75H53.625C52.531 57.75 51.4818 58.1846 50.7082 58.9582C49.9346 59.7318 49.5 60.781 49.5 61.875C49.5 62.969 49.9346 64.0182 50.7082 64.7918C51.4818 65.5654 52.531 66 53.625 66H61.875C62.969 66 64.0182 65.5654 64.7918 64.7918C65.5654 64.0182 66 62.969 66 61.875C66 60.781 65.5654 59.7318 64.7918 58.9582C64.0182 58.1846 62.969 57.75 61.875 57.75ZM61.875 41.25H37.125C36.031 41.25 34.9818 41.6846 34.2082 42.4582C33.4346 43.2318 33 44.281 33 45.375C33 46.469 33.4346 47.5182 34.2082 48.2918C34.9818 49.0654 36.031 49.5 37.125 49.5H61.875C62.969 49.5 64.0182 49.0654 64.7918 48.2918C65.5654 47.5182 66 46.469 66 45.375C66 44.281 65.5654 43.2318 64.7918 42.4582C64.0182 41.6846 62.969 41.25 61.875 41.25ZM61.875 24.75H37.125C36.031 24.75 34.9818 25.1846 34.2082 25.9582C33.4346 26.7318 33 27.781 33 28.875C33 29.969 33.4346 31.0182 34.2082 31.7918C34.9818 32.5654 36.031 33 37.125 33H61.875C62.969 33 64.0182 32.5654 64.7918 31.7918C65.5654 31.0182 66 29.969 66 28.875C66 27.781 65.5654 26.7318 64.7918 25.9582C64.0182 25.1846 62.969 24.75 61.875 24.75Z" fill="#F94444"/>
</g>
<defs>
<clipPath id="clip0_2_3">
<rect width="99" height="99" fill="white"/>
</clipPath>
</defs>
</svg>
