<svg width="297" height="115" viewBox="0 0 297 115" fill="none" xmlns="http://www.w3.org/2000/svg">
<path d="M114.952 91V23.8H125.704V82.072L125.128 91H114.952ZM140.872 92.152C136.84 92.152 133.352 91.128 130.408 89.08C127.528 86.968 125.32 84.024 123.784 80.248C122.248 76.472 121.48 72.056 121.48 67C121.48 61.88 122.248 57.464 123.784 53.752C125.32 49.976 127.528 47.064 130.408 45.016C133.352 42.904 136.84 41.848 140.872 41.848C145.224 41.848 149 42.904 152.2 45.016C155.464 47.064 157.992 49.976 159.784 53.752C161.64 57.464 162.568 61.88 162.568 67C162.568 72.056 161.64 76.472 159.784 80.248C157.992 84.024 155.464 86.968 152.2 89.08C149 91.128 145.224 92.152 140.872 92.152ZM138.184 82.36C140.744 82.36 143.016 81.72 145 80.44C146.984 79.096 148.552 77.272 149.704 74.968C150.92 72.664 151.528 70.008 151.528 67C151.528 63.992 150.952 61.336 149.8 59.032C148.712 56.728 147.176 54.936 145.192 53.656C143.208 52.376 140.904 51.736 138.28 51.736C135.848 51.736 133.672 52.376 131.752 53.656C129.832 54.936 128.328 56.728 127.24 59.032C126.216 61.336 125.704 63.992 125.704 67C125.704 70.008 126.216 72.664 127.24 74.968C128.328 77.272 129.8 79.096 131.656 80.44C133.576 81.72 135.752 82.36 138.184 82.36ZM172.437 91V43H183.093V91H172.437ZM177.812 33.88C176.085 33.88 174.581 33.272 173.301 32.056C172.085 30.776 171.477 29.272 171.477 27.544C171.477 25.816 172.085 24.344 173.301 23.128C174.581 21.912 176.085 21.304 177.812 21.304C179.541 21.304 181.013 21.912 182.229 23.128C183.509 24.344 184.149 25.816 184.149 27.544C184.149 29.272 183.509 30.776 182.229 32.056C181.013 33.272 179.541 33.88 177.812 33.88ZM195.765 91V23.8H206.517V91H195.765ZM218.452 91V23.8H229.204V91H218.452ZM241.812 91V43H252.468V91H241.812ZM247.188 33.88C245.46 33.88 243.956 33.272 242.676 32.056C241.46 30.776 240.852 29.272 240.852 27.544C240.852 25.816 241.46 24.344 242.676 23.128C243.956 21.912 245.46 21.304 247.188 21.304C248.916 21.304 250.388 21.912 251.604 23.128C252.884 24.344 253.524 25.816 253.524 27.544C253.524 29.272 252.884 30.776 251.604 32.056C250.388 33.272 248.916 33.88 247.188 33.88ZM284.244 92.152C279.188 92.152 275.316 90.904 272.628 88.408C270.004 85.848 268.692 82.2 268.692 77.464V28.024H279.348V75.448C279.348 77.688 279.86 79.384 280.884 80.536C281.972 81.688 283.54 82.264 285.588 82.264C286.228 82.264 286.932 82.136 287.7 81.88C288.468 81.624 289.332 81.144 290.292 80.44L294.228 88.6C292.564 89.752 290.9 90.616 289.236 91.192C287.572 91.832 285.908 92.152 284.244 92.152ZM260.724 52.216V43H292.308V52.216H260.724Z" fill="black"/>
<g clip-path="url(#clip0_2_2)">
<path d="M70.125 16.25C73.4071 16.25 76.5547 17.5538 78.8754 19.8746C81.1962 22.1953 82.5 25.3429 82.5 28.625V94.625C82.5001 95.3718 82.2975 96.1046 81.9137 96.7453C81.53 97.3859 80.9795 97.9104 80.321 98.2627C79.6626 98.615 78.9208 98.782 78.1749 98.7458C77.4289 98.7095 76.7069 98.4715 76.0856 98.057L66.5239 91.6839L60.6664 97.5414C59.9561 98.2516 59.011 98.6783 58.0086 98.7413C57.0061 98.8043 56.015 98.4994 55.2214 97.8838L54.8336 97.5414L49.5 92.2119L44.1664 97.5414C43.4561 98.2516 42.511 98.6783 41.5086 98.7413C40.5061 98.8043 39.515 98.4994 38.7214 97.8838L38.3336 97.5414L32.472 91.6839L22.9144 98.057L22.836 98.1065L22.6132 98.2303L22.4977 98.3004L22.275 98.3952L22.0687 98.4901L21.8666 98.552L21.6191 98.6304L21.4046 98.6675L21.1695 98.7129L20.823 98.7376L20.7157 98.75H20.625L20.4229 98.7376H20.262L20.2084 98.7253H20.1424L19.9732 98.6923L19.8165 98.6716L19.7546 98.651L19.6804 98.6428L19.5401 98.5974L19.3751 98.5561L19.2967 98.5272L19.2349 98.5107L19.1152 98.4571L18.9502 98.3952L18.8636 98.3499L18.81 98.3293L18.6945 98.2633L18.546 98.189L18.4882 98.1478L18.414 98.1065L18.2573 97.9951L18.1665 97.9374L18.1253 97.9003L18.0428 97.8425L17.8571 97.6734L17.8076 97.6404L17.7086 97.5414L17.5642 97.3805L17.4817 97.298L17.4529 97.2526L17.4075 97.2031L17.2755 97.0175L17.193 96.9144L17.1435 96.836L17.0197 96.6133L16.9496 96.4977L16.8547 96.275L16.7599 96.0687C16.7047 95.923 16.6579 95.7743 16.6196 95.6233L16.5784 95.3881L16.5371 95.1695L16.5 94.625V28.625C16.5 25.3429 17.8038 22.1953 20.1246 19.8746C22.4453 17.5538 25.5929 16.25 28.875 16.25H70.125ZM61.875 65.75H53.625C52.531 65.75 51.4818 66.1846 50.7082 66.9582C49.9346 67.7318 49.5 68.781 49.5 69.875C49.5 70.969 49.9346 72.0182 50.7082 72.7918C51.4818 73.5654 52.531 74 53.625 74H61.875C62.969 74 64.0182 73.5654 64.7918 72.7918C65.5654 72.0182 66 70.969 66 69.875C66 68.781 65.5654 67.7318 64.7918 66.9582C64.0182 66.1846 62.969 65.75 61.875 65.75ZM61.875 49.25H37.125C36.031 49.25 34.9818 49.6846 34.2082 50.4582C33.4346 51.2318 33 52.281 33 53.375C33 54.469 33.4346 55.5182 34.2082 56.2918C34.9818 57.0654 36.031 57.5 37.125 57.5H61.875C62.969 57.5 64.0182 57.0654 64.7918 56.2918C65.5654 55.5182 66 54.469 66 53.375C66 52.281 65.5654 51.2318 64.7918 50.4582C64.0182 49.6846 62.969 49.25 61.875 49.25ZM61.875 32.75H37.125C36.031 32.75 34.9818 33.1846 34.2082 33.9582C33.4346 34.7318 33 35.781 33 36.875C33 37.969 33.4346 39.0182 34.2082 39.7918C34.9818 40.5654 36.031 41 37.125 41H61.875C62.969 41 64.0182 40.5654 64.7918 39.7918C65.5654 39.0182 66 37.969 66 36.875C66 35.781 65.5654 34.7318 64.7918 33.9582C64.0182 33.1846 62.969 32.75 61.875 32.75Z" fill="#F94444"/>
</g>
<defs>
<clipPath id="clip0_2_2">
<rect width="99" height="99" fill="white" transform="translate(0 8)"/>
</clipPath>
</defs>
</svg>
